<svg version="1.1"  xmlns="http://www.w3.org/2000/svg" x="0px" y="0px"
	 viewBox="0 0 10 14.14" xml:space="preserve">
<path d="M298,412.5c0.4,0,0.9,0,1.3,0c0.8,0,1.4,0.6,1.4,1.4c0,0.6,0,1.2,0,1.9c0,0.8,0.2,1.6,0.7,2.2c0.3,0.5,0.7,0.9,1,1.4
	c0.5,0.8,0.7,1.6,0.8,2.4c0.1,1.2-0.1,2.3-0.8,3.3c-0.8,1.2-2,1.9-3.4,2.2c-1.4,0.3-2.8,0-4-0.8c-1.1-0.7-1.8-1.7-2.1-2.9
	c-0.1-0.5-0.1-1.1-0.1-1.7c0.1-1.4,0.7-2.5,1.5-3.6c0.3-0.5,0.7-0.9,0.8-1.5c0.1-0.2,0.1-0.4,0.1-0.6c0-0.8,0-1.5,0-2.3
	c0-0.8,0.6-1.4,1.4-1.4C297.1,412.5,297.5,412.5,298,412.5z M296.4,416.7c0,0,0,0.1,0,0.1c-0.1,0.5-0.3,0.9-0.5,1.3
	c-0.4,0.6-0.8,1.1-1.1,1.7c-0.6,1-0.9,2-0.7,3.2c0.1,0.9,0.6,1.7,1.3,2.2c1.1,0.9,2.3,1.2,3.7,0.9c1.2-0.3,2.1-1,2.7-2.1
	c0.3-0.6,0.4-1.3,0.4-2c-0.1-0.6-0.2-1.2-0.4-1.7c-0.3-0.6-0.7-1.1-1-1.6c-0.4-0.6-0.8-1.2-0.9-2c0-0.1-0.1-0.1-0.2-0.1
	c-0.6,0-1.2,0-1.7,0C297.2,416.7,296.8,416.7,296.4,416.7z M297.9,414c0.5,0,0.9,0,1.4,0c0.1,0,0.1,0,0.1-0.1c0-0.2-0.1-0.3-0.3-0.3
	c-0.8,0-1.6,0-2.5,0c-0.1,0-0.1,0-0.2,0c-0.1,0-0.1,0.2-0.1,0.3c0,0.1,0.1,0.1,0.2,0.1C297,414,297.5,414,297.9,414z M299.5,415.2
	c-1,0-2.1,0-3.1,0c0,0.1,0,0.2,0,0.4c1,0,2,0,3.1,0c0-0.1,0-0.1,0-0.2C299.5,415.3,299.5,415.2,299.5,415.2z"/>
<path d="M298.5,429.6c0,0.2,0,0.5,0,0.7c0,0.4-0.2,0.6-0.6,0.6c-0.3,0-0.6-0.2-0.6-0.6c0-0.5,0-1,0-1.5c0-0.3,0.2-0.5,0.5-0.6
	c0.2-0.1,0.5,0.1,0.6,0.3c0.1,0.1,0.1,0.2,0.1,0.4C298.5,429.1,298.5,429.3,298.5,429.6z"/>
<path d="M294.2,427c0,0.1-0.1,0.3-0.2,0.4c-0.4,0.4-0.7,0.7-1.1,1.1c-0.2,0.2-0.6,0.2-0.8,0c-0.2-0.2-0.3-0.6,0-0.8
	c0.4-0.4,0.7-0.7,1.1-1.1c0.2-0.2,0.4-0.2,0.6-0.1C294.1,426.6,294.2,426.7,294.2,427z"/>
<path d="M303.3,428.7c-0.1-0.1-0.3-0.1-0.4-0.2c-0.4-0.3-0.7-0.7-1.1-1.1c-0.2-0.2-0.2-0.4-0.2-0.6c0.1-0.2,0.2-0.4,0.5-0.4
	c0.2,0,0.3,0,0.5,0.2c0.4,0.4,0.7,0.7,1.1,1.1c0.2,0.2,0.2,0.4,0.1,0.6C303.8,428.5,303.6,428.6,303.3,428.7
	C303.4,428.6,303.4,428.7,303.3,428.7z"/>
<path d="M291,423.2c-0.3,0-0.5,0-0.8,0c-0.3,0-0.6-0.2-0.5-0.6c0-0.3,0.3-0.5,0.6-0.5c0.5,0,1,0,1.5,0c0.3,0,0.6,0.3,0.6,0.6
	c0,0.3-0.2,0.6-0.5,0.6c0,0,0,0-0.1,0C291.5,423.2,291.3,423.2,291,423.2C291,423.2,291,423.2,291,423.2z"/>
<path d="M304.9,423.2c-0.3,0-0.5,0-0.8,0c-0.3,0-0.5-0.2-0.5-0.6c0-0.3,0.3-0.6,0.6-0.6c0.5,0,1,0,1.5,0c0.3,0,0.5,0.2,0.6,0.5
	c0,0.4-0.2,0.6-0.5,0.6C305.4,423.2,305.1,423.2,304.9,423.2z"/>
<path d="M301.5,422.7c-0.1,0.4-0.2,0.9-0.5,1.3c-0.4,0.7-1.1,1.3-1.9,1.6c-0.5,0.2-0.9-0.1-0.8-0.5c0-0.3,0.2-0.4,0.4-0.5
	c0.3-0.1,0.6-0.3,0.9-0.6c0.4-0.4,0.7-0.9,0.8-1.5c0.1-0.3,0.3-0.5,0.7-0.5C301.3,422.1,301.5,422.4,301.5,422.7z"/>
</svg>
